<svg xmlns="http://www.w3.org/2000/svg" viewBox="0 0 1024 1024" style="background-color: #ffffff;">
    <defs>
        <linearGradient id="logoGradient" x1="0%" y1="0%" x2="100%" y2="100%">
            <stop offset="0%" style="stop-color:#4F46E5; stop-opacity:1" />
            <stop offset="100%" style="stop-color:#8B5CF6; stop-opacity:1" />
        </linearGradient>
    </defs>
    <path fill="url(#logoGradient)" d="M512 96a416 416 0 1 0 0 832 416 416 0 0 0 0-832zm-48 160h96v192h-96V256zm0 288h96v224a128 128 0 0 1-256 0v-96h96v96a32 32 0 0 0 64 0v-128zM352 448a96 96 0 1 1 0-192 96 96 0 0 1 0 192z"/>
</svg>